<svg width="32" height="32" viewBox="0 0 512 512" fill="none" xmlns="http://www.w3.org/2000/svg">
<path d="M442 164H276C237.402 164 206 132.598 206 94V70C206 31.402 237.402 0 276 0H442C480.598 0 512 31.402 512 70V94C512 132.598 480.598 164 442 164ZM276 40C259.458 40 246 53.458 246 70V94C246 110.542 259.458 124 276 124H442C458.542 124 472 110.542 472 94V70C472 53.458 458.542 40 442 40H276ZM512 442C512 430.954 503.046 422 492 422C480.954 422 472 430.954 472 442C472 458.542 458.542 472 442 472H276C259.458 472 246 458.542 246 442V277C246 260.458 259.458 247 276 247H442C458.542 247 472 260.458 472 277V342C472 353.046 480.954 362 492 362C503.046 362 512 353.046 512 342V277C512 238.402 480.598 207 442 207H276C237.402 207 206 238.402 206 277V442C206 480.598 237.402 512 276 512H442C480.598 512 512 480.598 512 442ZM94 512H70C31.402 512 0 480.598 0 442V70C0 31.402 31.402 0 70 0H94C132.598 0 164 31.402 164 70V442C164 480.598 132.598 512 94 512ZM70 40C53.458 40 40 53.458 40 70V442C40 458.542 53.458 472 70 472H94C110.542 472 124 458.542 124 442V70C124 53.458 110.542 40 94 40H70Z" fill="url(#paint0_linear)"/>
<defs>
<linearGradient id="paint0_linear" x1="0" y1="256" x2="512" y2="256" gradientUnits="userSpaceOnUse">
<stop stop-color="#00F2FE"/>
<stop offset="0.021" stop-color="#03EFFE"/>
<stop offset="0.293" stop-color="#24D2FE"/>
<stop offset="0.554" stop-color="#3CBDFE"/>
<stop offset="0.796" stop-color="#4AB0FE"/>
<stop offset="1" stop-color="#4FACFE"/>
</linearGradient>
</defs>
</svg>
